<?xml version="1.0" encoding="UTF-8"?>
<svg width="24px" height="24px" viewBox="0 0 24 24" version="1.1" xmlns="http://www.w3.org/2000/svg" xmlns:xlink="http://www.w3.org/1999/xlink">
    <title>8BE3B582-EF04-4FCC-86D6-037507A3EF6D</title>
    <defs>
        <rect id="path-1" x="0" y="0" width="1280" height="395"></rect>
        <linearGradient x1="63.1547663%" y1="25.235427%" x2="9.34023434%" y2="54.1408547%" id="linearGradient-3">
            <stop stop-color="#07257C" offset="0%"></stop>
            <stop stop-color="#1C3682" offset="100%"></stop>
        </linearGradient>
        <linearGradient x1="59.4518053%" y1="25.2459034%" x2="28.1705299%" y2="97.9324392%" id="linearGradient-4">
            <stop stop-color="#FFFFFF" stop-opacity="0.1" offset="0%"></stop>
            <stop stop-color="#FFFFFF" stop-opacity="0" offset="100%"></stop>
        </linearGradient>
        <rect id="path-5" x="403" y="278" width="475" height="336" rx="4"></rect>
        <filter x="-1.8%" y="-1.9%" width="103.6%" height="105.1%" filterUnits="objectBoundingBox" id="filter-6">
            <feOffset dx="0" dy="2" in="SourceAlpha" result="shadowOffsetOuter1"></feOffset>
            <feGaussianBlur stdDeviation="2.5" in="shadowOffsetOuter1" result="shadowBlurOuter1"></feGaussianBlur>
            <feColorMatrix values="0 0 0 0 0   0 0 0 0 0   0 0 0 0 0  0 0 0 0.18 0" type="matrix" in="shadowBlurOuter1"></feColorMatrix>
        </filter>
        <filter id="filter-7">
            <feColorMatrix in="SourceGraphic" type="matrix" values="0 0 0 0 0.258824 0 0 0 0 0.286275 0 0 0 0 0.368627 0 0 0 1.000000 0"></feColorMatrix>
        </filter>
    </defs>
    <g id="Login" stroke="none" stroke-width="1" fill="none" fill-rule="evenodd">
        <g id="00.4-Login-Password" transform="translate(-815.000000, -429.000000)">
            <rect fill="#EDF0F4" x="0" y="0" width="1280" height="720"></rect>
            <g id="bg_login" transform="translate(0.000000, 325.000000)">
                <mask id="mask-2" fill="white">
                    <use xlink:href="#path-1"></use>
                </mask>
                <use id="Rectangle" fill="#1C3682" xlink:href="#path-1"></use>
                <path d="M716.8,1.59047619 C873.09989,13.6119572 994.273223,60.7272027 1080.32,142.936213 C1166.36678,225.145223 1218.29821,343.414104 1236.11429,497.742857 L716.8,497.742857 L716.8,1.59047619 Z" id="Rectangle" fill="url(#linearGradient-3)" mask="url(#mask-2)"></path>
                <path d="M705.219048,13.1714286 C861.518937,25.1929096 982.692271,72.3081551 1068.73905,154.517165 C1154.78582,236.726175 1206.71725,354.995056 1224.53333,509.32381 L705.219048,509.32381 L705.219048,13.1714286 Z" id="Rectangle-Copy" fill="url(#linearGradient-4)" mask="url(#mask-2)" transform="translate(964.876190, 261.247619) rotate(90.000000) translate(-964.876190, -261.247619) "></path>
            </g>
            <g id="card-2-copy">
                <use fill="black" fill-opacity="1" filter="url(#filter-6)" xlink:href="#path-5"></use>
                <use fill="#FFFFFF" fill-rule="evenodd" xlink:href="#path-5"></use>
            </g>
            <g id="Group-12-Copy-4" transform="translate(435.000000, 397.000000)">
                <g id="Group-16-Copy-4" transform="translate(0.000000, 25.000000)">
                    <path d="M409,0.5 C409.414214,0.5 409.789214,0.667893219 410.06066,0.939339828 C410.332107,1.21078644 410.5,1.58578644 410.5,2 L410.5,2 L410.5,36 C410.5,36.4142136 410.332107,36.7892136 410.06066,37.0606602 C409.789214,37.3321068 409.414214,37.5 409,37.5 L409,37.5 L2,37.5 C1.58578644,37.5 1.21078644,37.3321068 0.939339828,37.0606602 C0.667893219,36.7892136 0.5,36.4142136 0.5,36 L0.5,36 L0.5,2 C0.5,1.58578644 0.667893219,1.21078644 0.939339828,0.939339828 C1.21078644,0.667893219 1.58578644,0.5 2,0.5 L2,0.5 Z" id="Rectangle" stroke="#E0E7EA" fill="#FFFFFF"></path>
                    <g id="ic/eye_slash" transform="translate(380.000000, 7.000000)" filter="url(#filter-7)">
                        <g>
                            <rect id="Rectangle" fill-opacity="0.01" fill="#FFFFFF" x="0" y="0" width="24" height="24"></rect>
                            <path d="M19.6724657,4.46966991 C19.9387323,4.73593648 19.9629383,5.15260016 19.7450839,5.44621165 L19.6724657,5.53033009 L17.2334341,7.9692452 C19.0296451,9.50260689 19.8616289,11.3929911 19.9184794,11.5237901 C19.9968065,11.706509 19.9968065,11.9133492 19.9184794,12.0960681 C19.8218894,12.3182979 17.4877504,17.6198582 11.9886525,17.6198582 C10.6053387,17.6198582 9.42229983,17.2843816 8.42477341,16.7786711 L5.53033009,19.6724657 C5.23743687,19.9653589 4.76256313,19.9653589 4.46966991,19.6724657 C4.20340335,19.4061991 4.1791973,18.9895355 4.39705176,18.695924 L4.46966991,18.6118055 L7.12389107,15.9579214 C7.12192703,15.956419 7.119964,15.9549162 7.11800199,15.9534128 L8.15494633,14.9156306 L8.16008021,14.92 L10.3313375,12.7498533 C10.1737097,12.4725148 10.0836879,12.1517348 10.0836879,11.809929 C10.0836879,10.7578462 10.9365696,9.90496454 11.9886524,9.90496454 C12.3300541,9.90496454 12.6504798,9.99477362 12.927593,10.1520554 L14.9254388,8.15490045 C14.9233997,8.15385693 14.9213597,8.15281428 14.9193188,8.15177251 L15.9912432,7.08103866 L15.9960802,7.084 L18.6118055,4.46966991 C18.9046988,4.1767767 19.3795725,4.1767767 19.6724657,4.46966991 Z M16.203876,8.99988932 L13.8406691,11.3620509 C13.8752808,11.5056872 13.8936169,11.6556668 13.8936169,11.809929 C13.8936169,12.8620119 13.0407353,13.7148935 11.9886524,13.7148935 C11.8347245,13.7148935 11.6850607,13.6966368 11.5417082,13.6621705 L9.52059502,15.6824351 C10.2400236,15.9808291 11.0608212,16.1673759 11.9886525,16.1673759 C15.875495,16.1673759 17.9176851,12.8164993 18.4449362,11.8099291 C18.1588842,11.252029 17.4342623,10.0141957 16.203876,8.99988932 Z M11.9886525,6 C12.7101085,6 13.3770885,6.0912516 13.9916868,6.25031306 L12.7462461,7.4951515 C12.5020848,7.46726044 12.2495949,7.45248227 11.9886525,7.45248227 C8.10180993,7.45248227 6.05889362,10.8033589 5.53236879,11.8099291 C5.72107509,12.1782065 6.10151409,12.8445889 6.69354209,13.5472363 L5.66713313,14.5755396 C4.60976496,13.3494226 4.10276595,12.1971641 4.05882553,12.0960681 C3.98049843,11.9133492 3.98049843,11.706509 4.05882553,11.5237901 C4.1554156,11.3015603 6.48955461,6 11.9886525,6 Z" id="Combined-Shape" fill="#42495E" fill-rule="nonzero"></path>
                        </g>
                    </g>
                </g>
            </g>
        </g>
    </g>
</svg>