<?xml version="1.0" encoding="UTF-8"?>
<svg width="30px" height="30px" viewBox="0 0 30 30" version="1.1" xmlns="http://www.w3.org/2000/svg" xmlns:xlink="http://www.w3.org/1999/xlink">
    <title>97BF40AD-1470-4F33-8253-68F09C95DD00</title>
    <defs>
        <rect id="path-1" x="0" y="0" width="1280" height="395"></rect>
        <rect id="path-3" x="0" y="0" width="475" height="88" rx="4"></rect>
        <filter x="-1.8%" y="-7.4%" width="103.6%" height="119.3%" filterUnits="objectBoundingBox" id="filter-4">
            <feOffset dx="0" dy="2" in="SourceAlpha" result="shadowOffsetOuter1"></feOffset>
            <feGaussianBlur stdDeviation="2.5" in="shadowOffsetOuter1" result="shadowBlurOuter1"></feGaussianBlur>
            <feColorMatrix values="0 0 0 0 0   0 0 0 0 0   0 0 0 0 0  0 0 0 0.18 0" type="matrix" in="shadowBlurOuter1"></feColorMatrix>
        </filter>
    </defs>
    <g id="Login" stroke="none" stroke-width="1" fill="none" fill-rule="evenodd">
        <g id="00.1-Login" transform="translate(-427.000000, -419.000000)">
            <rect fill="#EDF0F4" x="0" y="0" width="1280" height="720"></rect>
            <g id="bg_login" transform="translate(0.000000, 325.000000)">
                <mask id="mask-2" fill="white">
                    <use xlink:href="#path-1"></use>
                </mask>
                <use id="Rectangle" fill="#1C3682" xlink:href="#path-1"></use>
            </g>
            <g id="Group-3-Copy-3" transform="translate(403.000000, 390.000000)">
                <g id="card-2-copy">
                    <use fill="black" fill-opacity="1" filter="url(#filter-4)" xlink:href="#path-3"></use>
                    <use fill="#FFFFFF" fill-rule="evenodd" xlink:href="#path-3"></use>
                </g>
                <g id="ic/notes-copy-4" transform="translate(24.000000, 29.000000)">
                    <path d="M6.45,20.6295322 C8.56661609,21.6631871 11.1595464,21.8733539 14.228791,21.2600324 C18.5142827,20.4036706 21.9213523,18.5268372 24.45,15.6295322 L24.45,24.6295322 L6.45,24.6295322 L6.45,20.6295322 Z" id="Rectangle" fill="#F88A28"></path>
                    <path d="M24.0833477,3.95 L7.58334766,3.95 C7.04946813,3.95 6.61665234,4.38278776 6.61665234,4.91665234 L6.61665234,10.3333047 C6.61665234,10.8671767 7.04943264,11.299957 7.58330469,11.299957 C8.11717674,11.299957 8.54995703,10.8671767 8.54995703,10.3333047 L8.54995703,5.83330469 L23.1666094,5.88330469 L23.1166094,24.1666523 L8.5,24.1166523 L8.55,19.6666523 C8.55,19.1327803 8.11721971,18.7 7.58334766,18.7 C7.04946813,18.7 6.61665234,19.1327878 6.61665234,19.6666523 L6.61665234,25.0833047 C6.61665234,25.6171693 7.04946813,26.049957 7.58334766,26.049957 L24.0833477,26.049957 C24.6172197,26.049957 25.05,25.6171767 25.05,25.0833047 L25.05,4.91665234 C25.05,4.38278029 24.6172197,3.95 24.0833477,3.95 Z" id="Path" fill="#1C3682" fill-rule="nonzero"></path>
                    <path d="M12.8501913,19.3503202 L16.549112,15.649542 L16.6371526,15.5368591 L16.6857186,15.4558489 L16.7263209,15.3701344 L16.762753,15.2646542 L16.7812505,15.1890186 L16.79493,15.0977813 C16.8014554,15.0321077 16.8014554,14.9681931 16.7952042,14.9047749 L16.7771296,14.7928229 L16.7521531,14.7009161 L16.6944811,14.5617917 L16.6383148,14.4652665 L16.5821932,14.3891353 L16.5114883,14.3119883 L12.8501913,10.6499806 C12.4726924,10.2724817 11.8606123,10.2724817 11.4831134,10.6499806 C11.1056145,11.0274795 11.1056145,11.6395596 11.4831134,12.0170585 L13.5849298,14.1188749 L3.91665234,14.0335195 C3.38279758,14.0334289 2.95,14.4661985 2.95,15.0000859 C2.95,15.533958 3.38278029,15.9667383 3.91665234,15.9667383 L13.6202852,15.9667383 L11.483113,17.9832427 C11.1056145,18.3607412 11.1056145,18.9728213 11.4831134,19.3503202 C11.8606123,19.7278191 12.4726924,19.7278191 12.8501913,19.3503202 Z" id="Path" fill="#1C3682" fill-rule="nonzero"></path>
                </g>
            </g>
        </g>
    </g>
</svg>